<?xml version="1.0" encoding="UTF-8"?>
<svg id="_圖層_2" data-name="圖層 2" xmlns="http://www.w3.org/2000/svg" viewBox="0 0 64 64">
  <defs>
    <style>
      .cls-1 {
        fill: #234;
        stroke-width: 0px;
      }
    </style>
  </defs>
  <path class="cls-1" d="M23.97,59.42l3.77-3.64c2.27-19.56,12.3-33.79,28.72-45.58-7.93-1.2-32.12-4.79-34.06,17.2-.61,6.99,4.14,12.14,4.14,12.14,4.2-7.49,9.28-12.82,13.62-17-8.62,12-14.62,21.81-16.2,36.88Z"/>
  <path class="cls-1" d="M34.31,47.2c1.91-14.91,10.38-25.42,22.79-33.95-5.87,7.51-2.89,20.53-7.01,28.23-3.24,6.06-15.79,5.73-15.79,5.73Z"/>
  <path class="cls-1" d="M7.99,27.57c-.21,2.44,12.95,6.35,15.33,12.1,1.92,4.63-.98,12.1-.98,12.1-3.31-7.69-15.48-.83-14.35-24.2Z"/>
</svg>